<svg xmlns="http://www.w3.org/2000/svg" xmlns:xlink="http://www.w3.org/1999/xlink" width="500" zoomAndPan="magnify" viewBox="0 0 375 374.999991" height="500" preserveAspectRatio="xMidYMid meet" version="1.0"><defs><g/><clipPath id="76cae7a36a"><path d="M 141 197 L 245 197 L 245 226.925781 L 141 226.925781 Z M 141 197 " clip-rule="nonzero"/></clipPath><clipPath id="4816f40a6b"><path d="M 121.363281 121 L 135 121 L 135 189 L 121.363281 189 Z M 121.363281 121 " clip-rule="nonzero"/></clipPath><clipPath id="fa8c8071c0"><path d="M 208 159 L 253.363281 159 L 253.363281 220 L 208 220 Z M 208 159 " clip-rule="nonzero"/></clipPath><clipPath id="e0ea732e5d"><path d="M 126 94.925781 L 188 94.925781 L 188 211 L 126 211 Z M 126 94.925781 " clip-rule="nonzero"/></clipPath></defs><g fill="#333333" fill-opacity="1"><g transform="translate(106.230649, 259.740818)"><g><path d="M 9.15625 -14.75 C 7.375 -14.75 5.96875 -14.15625 4.9375 -12.96875 C 3.914062 -11.78125 3.40625 -10.15625 3.40625 -8.09375 C 3.40625 -5.976562 3.898438 -4.34375 4.890625 -3.1875 C 5.878906 -2.03125 7.296875 -1.453125 9.140625 -1.453125 C 10.265625 -1.453125 11.550781 -1.65625 13 -2.0625 L 13 -0.40625 C 11.882812 0.0078125 10.5 0.21875 8.84375 0.21875 C 6.457031 0.21875 4.617188 -0.503906 3.328125 -1.953125 C 2.035156 -3.398438 1.390625 -5.457031 1.390625 -8.125 C 1.390625 -9.789062 1.695312 -11.25 2.3125 -12.5 C 2.9375 -13.757812 3.835938 -14.726562 5.015625 -15.40625 C 6.203125 -16.082031 7.59375 -16.421875 9.1875 -16.421875 C 10.882812 -16.421875 12.367188 -16.113281 13.640625 -15.5 L 12.84375 -13.875 C 11.613281 -14.457031 10.382812 -14.75 9.15625 -14.75 Z M 9.15625 -14.75 "/></g></g></g><g fill="#333333" fill-opacity="1"><g transform="translate(123.108372, 259.740818)"><g><path d="M 2.234375 0 L 2.234375 -16.203125 L 4.109375 -16.203125 L 4.109375 0 Z M 2.234375 0 "/></g></g></g><g fill="#333333" fill-opacity="1"><g transform="translate(131.998943, 259.740818)"><g><path d="M 12.5 -11.484375 C 12.5 -9.835938 11.9375 -8.570312 10.8125 -7.6875 C 9.695312 -6.8125 8.097656 -6.375 6.015625 -6.375 L 4.109375 -6.375 L 4.109375 0 L 2.234375 0 L 2.234375 -16.203125 L 6.421875 -16.203125 C 10.472656 -16.203125 12.5 -14.628906 12.5 -11.484375 Z M 4.109375 -7.984375 L 5.8125 -7.984375 C 7.476562 -7.984375 8.679688 -8.253906 9.421875 -8.796875 C 10.171875 -9.335938 10.546875 -10.203125 10.546875 -11.390625 C 10.546875 -12.460938 10.191406 -13.257812 9.484375 -13.78125 C 8.785156 -14.300781 7.695312 -14.5625 6.21875 -14.5625 L 4.109375 -14.5625 Z M 4.109375 -7.984375 "/></g></g></g><g fill="#333333" fill-opacity="1"><g transform="translate(148.223071, 259.740818)"><g><path d="M 14.515625 0 L 12.640625 0 L 12.640625 -7.625 L 4.109375 -7.625 L 4.109375 0 L 2.234375 0 L 2.234375 -16.203125 L 4.109375 -16.203125 L 4.109375 -9.3125 L 12.640625 -9.3125 L 12.640625 -16.203125 L 14.515625 -16.203125 Z M 14.515625 0 "/></g></g></g><g fill="#333333" fill-opacity="1"><g transform="translate(167.52685, 259.740818)"><g><path d="M 11.25 0 L 2.234375 0 L 2.234375 -16.203125 L 11.25 -16.203125 L 11.25 -14.515625 L 4.109375 -14.515625 L 4.109375 -9.3125 L 10.828125 -9.3125 L 10.828125 -7.640625 L 4.109375 -7.640625 L 4.109375 -1.6875 L 11.25 -1.6875 Z M 11.25 0 "/></g></g></g><g fill="#333333" fill-opacity="1"><g transform="translate(182.709657, 259.740818)"><g><path d="M 4.109375 -6.734375 L 4.109375 0 L 2.234375 0 L 2.234375 -16.203125 L 6.671875 -16.203125 C 8.660156 -16.203125 10.128906 -15.816406 11.078125 -15.046875 C 12.023438 -14.285156 12.5 -13.144531 12.5 -11.625 C 12.5 -9.476562 11.410156 -8.03125 9.234375 -7.28125 L 13.640625 0 L 11.40625 0 L 7.484375 -6.734375 Z M 4.109375 -8.359375 L 6.6875 -8.359375 C 8.019531 -8.359375 8.992188 -8.617188 9.609375 -9.140625 C 10.234375 -9.671875 10.546875 -10.460938 10.546875 -11.515625 C 10.546875 -12.585938 10.226562 -13.359375 9.59375 -13.828125 C 8.96875 -14.304688 7.957031 -14.546875 6.5625 -14.546875 L 4.109375 -14.546875 Z M 4.109375 -8.359375 "/></g></g></g><g fill="#333333" fill-opacity="1"><g transform="translate(199.299354, 259.740818)"><g/></g></g><g fill="#333333" fill-opacity="1"><g transform="translate(207.757888, 259.740818)"><g><path d="M 2.234375 0 L 2.234375 -16.203125 L 4.109375 -16.203125 L 4.109375 -1.703125 L 11.25 -1.703125 L 11.25 0 Z M 2.234375 0 "/></g></g></g><g fill="#333333" fill-opacity="1"><g transform="translate(222.098776, 259.740818)"><g><path d="M 12.40625 0 L 10.390625 -5.15625 L 3.90625 -5.15625 L 1.90625 0 L 0 0 L 6.40625 -16.265625 L 7.984375 -16.265625 L 14.359375 0 Z M 9.796875 -6.84375 L 7.921875 -11.859375 C 7.679688 -12.492188 7.429688 -13.273438 7.171875 -14.203125 C 7.003906 -13.492188 6.769531 -12.710938 6.46875 -11.859375 L 4.5625 -6.84375 Z M 9.796875 -6.84375 "/></g></g></g><g fill="#333333" fill-opacity="1"><g transform="translate(239.02081, 259.740818)"><g><path d="M 2.234375 -16.203125 L 6.796875 -16.203125 C 8.953125 -16.203125 10.507812 -15.878906 11.46875 -15.234375 C 12.425781 -14.585938 12.90625 -13.570312 12.90625 -12.1875 C 12.90625 -11.226562 12.632812 -10.4375 12.09375 -9.8125 C 11.5625 -9.1875 10.785156 -8.78125 9.765625 -8.59375 L 9.765625 -8.484375 C 12.222656 -8.066406 13.453125 -6.773438 13.453125 -4.609375 C 13.453125 -3.160156 12.960938 -2.03125 11.984375 -1.21875 C 11.003906 -0.40625 9.632812 0 7.875 0 L 2.234375 0 Z M 4.109375 -9.265625 L 7.21875 -9.265625 C 8.539062 -9.265625 9.492188 -9.472656 10.078125 -9.890625 C 10.660156 -10.304688 10.953125 -11.007812 10.953125 -12 C 10.953125 -12.90625 10.625 -13.554688 9.96875 -13.953125 C 9.320312 -14.359375 8.289062 -14.5625 6.875 -14.5625 L 4.109375 -14.5625 Z M 4.109375 -7.671875 L 4.109375 -1.609375 L 7.484375 -1.609375 C 8.796875 -1.609375 9.78125 -1.859375 10.4375 -2.359375 C 11.101562 -2.867188 11.4375 -3.660156 11.4375 -4.734375 C 11.4375 -5.742188 11.097656 -6.484375 10.421875 -6.953125 C 9.742188 -7.429688 8.710938 -7.671875 7.328125 -7.671875 Z M 4.109375 -7.671875 "/></g></g></g><g fill="#333333" fill-opacity="1"><g transform="translate(256.286258, 259.740818)"><g><path d="M 11.359375 -4.3125 C 11.359375 -2.882812 10.84375 -1.769531 9.8125 -0.96875 C 8.78125 -0.175781 7.378906 0.21875 5.609375 0.21875 C 3.679688 0.21875 2.203125 -0.0234375 1.171875 -0.515625 L 1.171875 -2.34375 C 1.835938 -2.0625 2.5625 -1.835938 3.34375 -1.671875 C 4.125 -1.503906 4.898438 -1.421875 5.671875 -1.421875 C 6.929688 -1.421875 7.875 -1.660156 8.5 -2.140625 C 9.132812 -2.617188 9.453125 -3.28125 9.453125 -4.125 C 9.453125 -4.6875 9.335938 -5.144531 9.109375 -5.5 C 8.890625 -5.863281 8.515625 -6.195312 7.984375 -6.5 C 7.460938 -6.800781 6.660156 -7.144531 5.578125 -7.53125 C 4.078125 -8.070312 3.003906 -8.710938 2.359375 -9.453125 C 1.710938 -10.191406 1.390625 -11.15625 1.390625 -12.34375 C 1.390625 -13.59375 1.859375 -14.582031 2.796875 -15.3125 C 3.734375 -16.050781 4.972656 -16.421875 6.515625 -16.421875 C 8.117188 -16.421875 9.597656 -16.128906 10.953125 -15.546875 L 10.375 -13.90625 C 9.03125 -14.46875 7.726562 -14.75 6.46875 -14.75 C 5.46875 -14.75 4.6875 -14.53125 4.125 -14.09375 C 3.570312 -13.664062 3.296875 -13.070312 3.296875 -12.3125 C 3.296875 -11.757812 3.394531 -11.300781 3.59375 -10.9375 C 3.800781 -10.582031 4.148438 -10.253906 4.640625 -9.953125 C 5.140625 -9.648438 5.894531 -9.320312 6.90625 -8.96875 C 8.601562 -8.351562 9.769531 -7.695312 10.40625 -7 C 11.039062 -6.3125 11.359375 -5.414062 11.359375 -4.3125 Z M 11.359375 -4.3125 "/></g></g></g><g clip-path="url(#76cae7a36a)"><path fill="#3a0792" d="M 239.773438 199.292969 C 239.78125 199.285156 239.792969 199.265625 239.8125 199.246094 C 239.792969 199.265625 239.78125 199.28125 239.773438 199.292969 Z M 240.320312 201.804688 C 239.460938 201.148438 239.296875 199.921875 239.949219 199.0625 C 239.917969 199.105469 239.886719 199.144531 239.859375 199.183594 C 239.882812 199.148438 239.914062 199.109375 239.949219 199.0625 C 240.066406 198.914062 240.117188 198.84375 240.132812 198.824219 C 240.113281 198.851562 240.03125 198.957031 239.949219 199.0625 C 240.605469 198.203125 241.832031 198.039062 242.691406 198.691406 C 243.550781 199.347656 243.714844 200.578125 243.0625 201.433594 C 242.40625 202.292969 241.179688 202.457031 240.320312 201.804688 Z M 142.371094 206.511719 C 141.519531 207.417969 141.5625 208.84375 142.472656 209.699219 C 143.128906 210.316406 144.058594 210.460938 144.84375 210.152344 C 157.160156 220.835938 172.804688 226.699219 189.136719 226.699219 C 199.6875 226.699219 209.804688 224.328125 219.199219 219.648438 C 227.417969 215.5625 234.835938 209.730469 240.796875 202.699219 C 241.78125 202.984375 242.882812 202.660156 243.539062 201.796875 C 244.394531 200.675781 244.175781 199.070312 243.054688 198.214844 C 241.933594 197.363281 240.328125 197.578125 239.472656 198.699219 C 238.851562 199.511719 238.800781 200.585938 239.246094 201.4375 C 226.707031 216.253906 208.582031 224.699219 189.136719 224.699219 C 173.300781 224.699219 158.132812 219.019531 146.1875 208.667969 C 146.40625 207.882812 146.195312 207.003906 145.5625 206.410156 C 144.652344 205.558594 143.222656 205.601562 142.371094 206.511719 " fill-opacity="1" fill-rule="nonzero"/></g><g clip-path="url(#4816f40a6b)"><path fill="#3a0792" d="M 129.898438 185.042969 C 129.894531 185.035156 129.886719 185.015625 129.875 184.992188 C 129.886719 185.019531 129.894531 185.035156 129.898438 185.042969 Z M 129.699219 184.597656 C 129.640625 184.472656 129.617188 184.417969 129.699219 184.597656 Z M 127.1875 183.78125 C 128.171875 183.339844 129.332031 183.78125 129.773438 184.765625 C 130.214844 185.75 129.773438 186.910156 128.789062 187.351562 C 127.804688 187.792969 126.648438 187.351562 126.203125 186.367188 C 125.761719 185.382812 126.203125 184.226562 127.1875 183.78125 Z M 134.628906 124.695312 C 135.3125 123.652344 135.019531 122.253906 133.976562 121.570312 C 132.933594 120.890625 131.535156 121.183594 130.855469 122.222656 C 130.355469 122.984375 130.378906 123.9375 130.832031 124.660156 C 124.6875 135.050781 121.449219 146.878906 121.449219 159.011719 C 121.449219 167.582031 123.035156 175.90625 126.152344 183.792969 C 125.449219 184.523438 125.21875 185.636719 125.65625 186.613281 C 126.234375 187.902344 127.75 188.476562 129.035156 187.898438 C 130.320312 187.320312 130.898438 185.804688 130.320312 184.519531 C 129.898438 183.578125 128.96875 183.015625 127.996094 183.015625 C 124.980469 175.375 123.449219 167.3125 123.449219 159.011719 C 123.449219 147.25 126.585938 135.78125 132.539062 125.707031 C 133.339844 125.777344 134.15625 125.417969 134.628906 124.695312 " fill-opacity="1" fill-rule="nonzero"/></g><path fill="#3a0792" d="M 217.066406 105.996094 C 217.089844 106.003906 217.09375 106.007812 217.066406 105.996094 Z M 217.054688 105.988281 C 217.042969 105.980469 217.019531 105.972656 216.992188 105.957031 C 217.019531 105.96875 217.039062 105.980469 217.054688 105.988281 Z M 218.554688 102.363281 C 219.519531 102.847656 219.914062 104.023438 219.429688 104.988281 C 218.949219 105.953125 217.773438 106.347656 216.808594 105.863281 C 215.84375 105.382812 215.449219 104.207031 215.929688 103.242188 C 216.414062 102.277344 217.589844 101.882812 218.554688 102.363281 Z M 239.65625 119.535156 C 239.109375 118.808594 238.199219 118.511719 237.363281 118.699219 C 232.558594 112.96875 226.699219 108.070312 220.222656 104.363281 C 220.320312 103.339844 219.796875 102.3125 218.820312 101.828125 C 217.5625 101.199219 216.023438 101.714844 215.394531 102.972656 C 214.765625 104.234375 215.277344 105.773438 216.539062 106.402344 C 217.453125 106.859375 218.507812 106.710938 219.261719 106.121094 C 225.511719 109.699219 231.167969 114.429688 235.808594 119.957031 C 235.476562 120.691406 235.542969 121.574219 236.0625 122.261719 C 236.816406 123.253906 238.230469 123.449219 239.222656 122.695312 C 240.21875 121.945312 240.410156 120.527344 239.65625 119.535156 " fill-opacity="1" fill-rule="nonzero"/><g clip-path="url(#fa8c8071c0)"><path fill="#3a0792" d="M 249.011719 161.757812 C 249.011719 161.785156 249.011719 161.804688 249.011719 161.820312 C 249.011719 161.808594 249.011719 161.785156 249.011719 161.757812 Z M 249.023438 161.222656 C 249.023438 161.214844 249.023438 161.214844 249.023438 161.222656 Z M 251.011719 159.613281 C 252.089844 159.632812 252.949219 160.53125 252.929688 161.605469 C 252.90625 162.683594 252.011719 163.546875 250.933594 163.523438 C 249.855469 163.5 248.996094 162.605469 249.019531 161.527344 C 249.015625 161.609375 249.015625 161.691406 249.011719 161.75 C 249.011719 161.703125 249.015625 161.628906 249.019531 161.527344 C 249.019531 161.367188 249.023438 161.28125 249.023438 161.242188 C 249.023438 161.292969 249.019531 161.410156 249.019531 161.527344 C 249.039062 160.449219 249.933594 159.589844 251.011719 159.613281 Z M 253.527344 161.621094 C 253.558594 160.210938 252.433594 159.039062 251.027344 159.011719 C 249.617188 158.980469 248.445312 160.105469 248.417969 161.515625 C 248.398438 162.53125 248.980469 163.425781 249.835938 163.851562 C 248.019531 186.953125 233.382812 206.863281 211.8125 215.519531 C 211.222656 214.976562 210.355469 214.765625 209.542969 215.042969 C 208.367188 215.449219 207.742188 216.734375 208.148438 217.914062 C 208.554688 219.089844 209.839844 219.714844 211.015625 219.308594 C 211.878906 219.011719 212.441406 218.242188 212.523438 217.390625 C 223.316406 213.058594 232.667969 205.84375 239.660156 196.421875 C 246.730469 186.898438 250.910156 175.726562 251.832031 163.972656 C 252.800781 163.625 253.503906 162.707031 253.527344 161.621094 C 253.527344 161.621094 253.527344 161.625 253.527344 161.625 C 253.527344 161.625 253.527344 161.621094 253.527344 161.621094 C 253.53125 161.578125 253.53125 161.542969 253.53125 161.507812 C 253.53125 161.542969 253.53125 161.582031 253.527344 161.621094 " fill-opacity="1" fill-rule="nonzero"/></g><g clip-path="url(#e0ea732e5d)"><path fill="#3a0792" d="M 152.433594 206.359375 C 152.425781 206.351562 152.425781 206.351562 152.433594 206.359375 Z M 149.941406 206.949219 C 150.582031 206.082031 151.808594 205.898438 152.675781 206.539062 C 152.578125 206.46875 152.480469 206.394531 152.441406 206.367188 C 152.472656 206.386719 152.542969 206.441406 152.675781 206.539062 C 152.832031 206.652344 152.902344 206.707031 152.921875 206.71875 C 152.894531 206.703125 152.789062 206.621094 152.675781 206.539062 C 153.542969 207.179688 153.726562 208.40625 153.085938 209.273438 C 152.445312 210.140625 151.21875 210.324219 150.351562 209.683594 C 149.484375 209.042969 149.300781 207.816406 149.941406 206.949219 Z M 183.527344 96.375 C 168.304688 97.726562 154.183594 104.546875 143.558594 115.722656 C 132.398438 127.472656 126.25 142.84375 126.25 159.011719 C 126.25 168.964844 128.515625 178.488281 132.988281 187.320312 C 136.878906 195.003906 142.402344 201.910156 149.050781 207.433594 C 148.78125 208.421875 149.121094 209.519531 149.992188 210.167969 C 151.125 211.003906 152.730469 210.765625 153.566406 209.632812 C 154.40625 208.5 154.167969 206.894531 153.035156 206.058594 C 152.210938 205.449219 151.140625 205.410156 150.296875 205.867188 C 136.253906 194.234375 128.25 177.292969 128.25 159.011719 C 128.25 127.394531 152.421875 101.160156 183.660156 98.371094 C 184.070312 99.074219 184.84375 99.53125 185.714844 99.492188 C 186.957031 99.4375 187.921875 98.382812 187.863281 97.136719 C 187.808594 95.894531 186.753906 94.929688 185.507812 94.984375 C 184.605469 95.027344 183.855469 95.59375 183.527344 96.375 " fill-opacity="1" fill-rule="nonzero"/></g><path fill="#3a0792" d="M 241.207031 177.136719 C 241.203125 177.15625 241.195312 177.175781 241.191406 177.191406 C 241.195312 177.175781 241.203125 177.15625 241.207031 177.136719 Z M 241.1875 177.203125 C 241.179688 177.226562 241.171875 177.246094 241.167969 177.261719 C 241.171875 177.246094 241.179688 177.226562 241.1875 177.203125 Z M 241.152344 177.308594 C 241.152344 177.3125 241.152344 177.3125 241.152344 177.308594 Z M 241.304688 176.839844 C 241.304688 176.835938 241.304688 176.832031 241.308594 176.828125 C 241.304688 176.832031 241.304688 176.835938 241.304688 176.839844 Z M 241.324219 176.769531 C 241.332031 176.746094 241.339844 176.730469 241.339844 176.722656 C 241.339844 176.730469 241.332031 176.746094 241.324219 176.769531 Z M 243.707031 175.757812 C 244.734375 176.085938 245.300781 177.191406 244.96875 178.21875 C 244.636719 179.246094 243.535156 179.808594 242.507812 179.476562 C 241.480469 179.148438 240.917969 178.042969 241.246094 177.015625 C 241.261719 176.96875 241.273438 176.929688 241.285156 176.894531 C 241.273438 176.933594 241.261719 176.976562 241.246094 177.015625 C 241.578125 175.988281 242.683594 175.425781 243.707031 175.757812 Z M 245.59375 178.242188 C 245.574219 178.292969 245.558594 178.347656 245.539062 178.402344 C 245.972656 177.058594 245.234375 175.617188 243.890625 175.183594 C 242.550781 174.753906 241.109375 175.492188 240.675781 176.832031 C 240.363281 177.800781 240.664062 178.820312 241.359375 179.476562 C 232.957031 200.882812 212.273438 215.101562 189.136719 215.101562 C 170.121094 215.101562 152.230469 205.257812 141.941406 189.28125 C 142.363281 188.601562 142.414062 187.714844 141.988281 186.96875 C 141.367188 185.886719 139.992188 185.507812 138.910156 186.125 C 137.828125 186.742188 137.449219 188.121094 138.066406 189.203125 C 138.519531 189.996094 139.382812 190.410156 140.234375 190.328125 C 145.210938 198.070312 151.984375 204.566406 159.9375 209.210938 C 168.773438 214.371094 178.871094 217.101562 189.136719 217.101562 C 213.117188 217.101562 234.546875 202.359375 243.238281 180.167969 C 244.265625 180.113281 245.207031 179.4375 245.539062 178.402344 C 245.496094 178.539062 245.453125 178.679688 245.429688 178.746094 C 245.445312 178.691406 245.480469 178.585938 245.539062 178.402344 C 245.558594 178.339844 245.578125 178.289062 245.59375 178.242188 " fill-opacity="1" fill-rule="nonzero"/><path fill="#3a0792" d="M 132.070312 159.8125 C 130.992188 159.808594 130.117188 158.925781 130.125 157.847656 C 130.128906 156.769531 131.007812 155.894531 132.089844 155.902344 C 133.167969 155.90625 134.039062 156.789062 134.035156 157.867188 C 134.035156 157.597656 134.039062 157.328125 134.035156 157.867188 C 134.035156 158.03125 134.035156 158.117188 134.035156 158.15625 C 134.035156 158.105469 134.035156 157.988281 134.035156 157.867188 C 134.03125 158.945312 133.148438 159.820312 132.070312 159.8125 Z M 189.136719 101.925781 C 189.105469 100.679688 188.070312 99.695312 186.824219 99.726562 C 185.917969 99.75 185.152344 100.304688 184.8125 101.085938 C 170.769531 102.125 157.660156 108.199219 147.707031 118.332031 C 137.820312 128.402344 132 141.507812 131.160156 155.476562 C 130.207031 155.84375 129.527344 156.765625 129.523438 157.84375 C 129.515625 159.253906 130.65625 160.40625 132.066406 160.414062 C 133.476562 160.421875 134.628906 159.277344 134.636719 157.871094 C 134.640625 156.84375 134.03125 155.953125 133.160156 155.542969 C 134.863281 127.625 156.992188 105.164062 184.914062 103.085938 C 185.3125 103.789062 186.074219 104.257812 186.941406 104.238281 C 188.1875 104.203125 189.167969 103.171875 189.136719 101.925781 " fill-opacity="1" fill-rule="nonzero"/><path fill="#3a0792" d="M 149.300781 128.292969 C 149.308594 128.28125 149.308594 128.28125 149.300781 128.292969 Z M 149.285156 128.3125 C 149.261719 128.347656 149.214844 128.410156 149.140625 128.511719 C 149.199219 128.433594 149.253906 128.355469 149.285156 128.3125 Z M 149.109375 128.554688 C 149.058594 128.621094 149.023438 128.671875 148.996094 128.710938 C 149.027344 128.667969 149.066406 128.613281 149.109375 128.554688 Z M 148.984375 128.722656 C 148.972656 128.738281 148.964844 128.75 148.957031 128.761719 C 148.964844 128.75 148.976562 128.738281 148.984375 128.722656 Z M 148.949219 128.777344 C 148.9375 128.789062 148.9375 128.785156 148.949219 128.777344 Z M 148.703125 125.800781 C 149.574219 126.4375 149.761719 127.664062 149.125 128.535156 C 148.488281 129.40625 147.261719 129.59375 146.390625 128.957031 C 145.519531 128.316406 145.332031 127.09375 145.96875 126.222656 C 146.605469 125.351562 147.832031 125.164062 148.703125 125.800781 Z M 225.507812 120.101562 C 215.59375 110.816406 202.765625 105.722656 189.136719 105.722656 C 180.667969 105.722656 172.566406 107.660156 165.054688 111.484375 C 158.632812 114.75 152.859375 119.367188 148.222656 124.917969 C 147.230469 124.644531 146.128906 124.988281 145.484375 125.867188 C 144.652344 127.003906 144.898438 128.605469 146.035156 129.441406 C 147.171875 130.273438 148.773438 130.023438 149.609375 128.890625 C 150.210938 128.066406 150.246094 127 149.789062 126.15625 C 159.582031 114.414062 173.789062 107.722656 189.136719 107.722656 C 202.238281 107.722656 214.570312 112.613281 224.109375 121.53125 C 223.859375 122.296875 224.03125 123.167969 224.625 123.789062 C 225.484375 124.6875 226.914062 124.722656 227.8125 123.859375 C 228.714844 123 228.746094 121.570312 227.882812 120.667969 C 227.25 120.011719 226.316406 119.820312 225.507812 120.101562 " fill-opacity="1" fill-rule="nonzero"/><path fill="#3a0792" d="M 188.5 204.542969 C 188.507812 204.542969 188.515625 204.542969 188.53125 204.542969 C 188.519531 204.542969 188.507812 204.542969 188.5 204.542969 Z M 188.554688 204.542969 C 188.585938 204.539062 188.632812 204.539062 188.695312 204.539062 C 188.640625 204.539062 188.589844 204.539062 188.554688 204.542969 Z M 189.046875 204.53125 C 189.058594 204.53125 189.070312 204.53125 189.078125 204.53125 C 189.066406 204.53125 189.058594 204.53125 189.046875 204.53125 Z M 189.105469 204.53125 C 189.117188 204.53125 189.117188 204.53125 189.105469 204.53125 Z M 186.882812 206.527344 C 186.863281 205.449219 187.726562 204.554688 188.804688 204.535156 C 188.800781 204.535156 188.800781 204.535156 188.800781 204.535156 C 188.800781 204.535156 188.800781 204.535156 188.804688 204.535156 C 188.851562 204.535156 188.890625 204.535156 188.925781 204.535156 C 188.886719 204.535156 188.84375 204.535156 188.804688 204.535156 C 189.882812 204.519531 190.773438 205.378906 190.792969 206.457031 C 190.8125 207.535156 189.953125 208.429688 188.875 208.449219 C 187.792969 208.46875 186.902344 207.605469 186.882812 206.527344 Z M 188.882812 209.046875 C 190.292969 209.023438 191.417969 207.855469 191.394531 206.445312 C 191.367188 205.039062 190.203125 203.910156 188.792969 203.9375 C 187.78125 203.953125 186.917969 204.5625 186.519531 205.425781 C 162.113281 204.058594 142.648438 183.730469 142.648438 159.011719 C 142.648438 141.925781 151.8125 126.519531 166.695312 118.308594 C 167.34375 118.777344 168.21875 118.890625 168.992188 118.527344 C 170.117188 117.992188 170.601562 116.648438 170.066406 115.523438 C 169.535156 114.394531 168.191406 113.914062 167.0625 114.445312 C 166.234375 114.839844 165.757812 115.671875 165.773438 116.535156 C 158.621094 120.480469 152.5625 126.175781 148.164062 133.105469 C 143.25 140.855469 140.648438 149.8125 140.648438 159.011719 C 140.648438 184.816406 160.980469 206.03125 186.460938 207.425781 C 186.84375 208.390625 187.789062 209.066406 188.882812 209.046875 " fill-opacity="1" fill-rule="nonzero"/><path fill="#3a0792" d="M 151.886719 175.515625 C 151.890625 175.515625 151.890625 175.519531 151.894531 175.523438 C 151.890625 175.519531 151.890625 175.519531 151.886719 175.515625 Z M 152.046875 175.839844 C 152.058594 175.859375 152.066406 175.878906 152.074219 175.894531 C 152.066406 175.875 152.058594 175.859375 152.046875 175.839844 Z M 152.128906 176 C 152.140625 176.027344 152.148438 176.046875 152.152344 176.054688 C 152.148438 176.042969 152.140625 176.027344 152.128906 176 Z M 149.402344 174.890625 C 150.367188 174.414062 151.542969 174.8125 152.019531 175.78125 C 152.496094 176.75 152.09375 177.921875 151.128906 178.398438 C 150.160156 178.875 148.984375 178.476562 148.507812 177.507812 C 148.03125 176.539062 148.433594 175.363281 149.402344 174.890625 Z M 145.449219 159.011719 C 145.449219 164.5 146.453125 169.824219 148.429688 174.871094 C 147.703125 175.625 147.484375 176.78125 147.96875 177.773438 C 147.90625 177.640625 147.839844 177.503906 147.808594 177.441406 C 147.832031 177.492188 147.882812 177.59375 147.96875 177.773438 C 148.058594 177.949219 148.109375 178.050781 148.132812 178.097656 C 148.101562 178.039062 148.035156 177.90625 147.96875 177.773438 C 148.59375 179.035156 150.128906 179.558594 151.390625 178.9375 C 152.65625 178.316406 153.179688 176.78125 152.558594 175.515625 C 152.117188 174.617188 151.210938 174.097656 150.273438 174.089844 C 148.398438 169.292969 147.449219 164.230469 147.449219 159.011719 C 147.449219 136.027344 166.152344 117.324219 189.136719 117.324219 C 192.117188 117.324219 195.074219 117.644531 197.964844 118.269531 C 198.140625 119.042969 198.714844 119.703125 199.53125 119.941406 C 200.726562 120.292969 201.980469 119.605469 202.328125 118.410156 C 202.679688 117.214844 201.992188 115.960938 200.800781 115.609375 C 199.914062 115.351562 199 115.660156 198.441406 116.320312 C 195.394531 115.660156 192.277344 115.324219 189.136719 115.324219 C 165.046875 115.324219 145.449219 134.921875 145.449219 159.011719 " fill-opacity="1" fill-rule="nonzero"/><path fill="#3a0792" d="M 214.625 184.308594 C 214.609375 184.328125 214.589844 184.347656 214.578125 184.363281 C 214.589844 184.347656 214.605469 184.332031 214.625 184.308594 Z M 214.828125 184.089844 C 214.847656 184.070312 214.863281 184.050781 214.878906 184.035156 C 214.863281 184.050781 214.847656 184.070312 214.828125 184.089844 Z M 214.929688 183.984375 C 214.980469 183.925781 214.96875 183.9375 214.929688 183.984375 Z M 217.515625 184.0625 C 218.308594 184.792969 218.359375 186.035156 217.625 186.824219 C 216.894531 187.617188 215.652344 187.667969 214.863281 186.9375 C 214.070312 186.203125 214.019531 184.964844 214.75 184.171875 C 214.742188 184.179688 214.734375 184.191406 214.726562 184.199219 C 214.734375 184.191406 214.742188 184.183594 214.75 184.171875 C 214.765625 184.15625 214.777344 184.144531 214.792969 184.128906 C 214.777344 184.144531 214.765625 184.15625 214.75 184.171875 C 215.484375 183.378906 216.722656 183.328125 217.515625 184.0625 Z M 218.066406 187.234375 C 219.023438 186.199219 218.957031 184.578125 217.921875 183.621094 C 216.886719 182.664062 215.265625 182.730469 214.3125 183.765625 C 213.628906 184.5 213.46875 185.535156 213.804688 186.414062 C 207.019531 192.546875 198.351562 195.898438 189.136719 195.898438 C 168.796875 195.898438 152.25 179.351562 152.25 159.011719 C 152.25 140.160156 166.453125 124.453125 184.953125 122.363281 C 185.359375 123.035156 186.109375 123.476562 186.957031 123.453125 C 188.199219 123.410156 189.175781 122.371094 189.136719 121.125 C 189.097656 119.878906 188.054688 118.902344 186.808594 118.941406 C 185.882812 118.972656 185.105469 119.558594 184.785156 120.367188 C 165.253906 122.542969 150.25 139.117188 150.25 159.011719 C 150.25 180.453125 167.695312 197.898438 189.136719 197.898438 C 198.875 197.898438 208.035156 194.347656 215.195312 187.851562 C 216.160156 188.257812 217.316406 188.042969 218.066406 187.234375 " fill-opacity="1" fill-rule="nonzero"/><path fill="#3a0792" d="M 220.183594 161.1875 C 220.183594 161.195312 220.183594 161.203125 220.183594 161.214844 C 220.183594 161.203125 220.183594 161.195312 220.183594 161.1875 Z M 220.183594 161.257812 C 220.179688 161.304688 220.175781 161.371094 220.175781 161.4375 C 220.179688 161.355469 220.179688 161.296875 220.183594 161.257812 Z M 220.164062 161.746094 C 220.164062 161.75 220.164062 161.753906 220.164062 161.757812 C 220.164062 161.753906 220.164062 161.75 220.164062 161.746094 Z M 220.160156 161.796875 C 220.160156 161.800781 220.160156 161.800781 220.160156 161.796875 Z M 222.203125 159.613281 C 223.28125 159.652344 224.121094 160.5625 224.082031 161.640625 C 224.039062 162.71875 223.132812 163.5625 222.054688 163.519531 C 220.976562 163.480469 220.132812 162.566406 220.171875 161.488281 C 220.214844 160.414062 221.125 159.570312 222.203125 159.613281 Z M 224.683594 161.664062 C 224.734375 160.257812 223.632812 159.066406 222.226562 159.011719 C 220.816406 158.957031 219.628906 160.058594 219.574219 161.46875 C 219.535156 162.453125 220.0625 163.328125 220.867188 163.785156 C 219.402344 173.488281 213.503906 182.070312 204.925781 186.9375 C 204.292969 186.480469 203.441406 186.363281 202.679688 186.707031 C 201.542969 187.214844 201.035156 188.550781 201.542969 189.6875 C 202.054688 190.824219 203.386719 191.332031 204.523438 190.824219 C 205.378906 190.441406 205.878906 189.589844 205.859375 188.710938 C 215.019531 183.53125 221.316406 174.371094 222.855469 164.011719 C 223.875 163.710938 224.636719 162.785156 224.683594 161.664062 " fill-opacity="1" fill-rule="nonzero"/><path fill="#3a0792" d="M 178.46875 188.273438 C 178.46875 188.273438 178.464844 188.273438 178.464844 188.273438 C 178.464844 188.273438 178.46875 188.273438 178.46875 188.273438 Z M 177.601562 192.101562 C 176.570312 191.78125 175.992188 190.683594 176.308594 189.652344 C 176.628906 188.625 177.726562 188.046875 178.757812 188.363281 C 178.648438 188.328125 178.539062 188.296875 178.488281 188.28125 C 178.527344 188.292969 178.609375 188.320312 178.757812 188.363281 C 178.917969 188.414062 179.003906 188.441406 179.035156 188.449219 C 178.992188 188.4375 178.875 188.402344 178.757812 188.363281 C 179.789062 188.683594 180.367188 189.78125 180.046875 190.8125 C 179.726562 191.839844 178.628906 192.417969 177.601562 192.101562 Z M 157.488281 164.292969 C 158.136719 163.855469 158.539062 163.097656 158.480469 162.261719 C 158.390625 161.015625 157.3125 160.082031 156.070312 160.171875 C 154.828125 160.261719 153.890625 161.339844 153.980469 162.582031 C 154.046875 163.515625 154.671875 164.273438 155.503906 164.558594 C 157.386719 175.957031 165.011719 185.710938 175.625 190.308594 C 175.65625 191.367188 176.351562 192.34375 177.421875 192.675781 C 177.28125 192.628906 177.140625 192.585938 177.074219 192.566406 C 177.125 192.582031 177.234375 192.613281 177.421875 192.675781 C 177.628906 192.738281 177.738281 192.773438 177.785156 192.785156 C 177.726562 192.769531 177.574219 192.722656 177.421875 192.675781 C 178.769531 193.089844 180.203125 192.335938 180.621094 190.988281 C 181.039062 189.644531 180.28125 188.207031 178.933594 187.789062 C 177.992188 187.5 177.007812 187.785156 176.355469 188.441406 C 166.417969 184.113281 159.269531 174.976562 157.488281 164.292969 " fill-opacity="1" fill-rule="nonzero"/></svg>