<?xml version="1.0" encoding="utf-8"?>
<!-- Generator: Adobe Illustrator 27.1.1, SVG Export Plug-In . SVG Version: 6.00 Build 0)  -->
<svg version="1.2" baseProfile="tiny" id="Layer_1" xmlns="http://www.w3.org/2000/svg" xmlns:xlink="http://www.w3.org/1999/xlink"
	 x="0px" y="0px" viewBox="0 0 500 500" overflow="visible" xml:space="preserve">
<g>
	<path d="M240.5,160l-16,55.6h2.9l16.8-58.2l16.7,58.2H275l-18.8-65.9h-16.4C241.2,153.7,241.4,156.1,240.5,160z"/>
	<path d="M292.4,276.6h-14.1l10.7,37.1c2.6,9.6,4,13.6,4.7,23.4h18.3c-4.4-9.1-6.3-13.6-8.9-23.4L292.4,276.6z"/>
	<path d="M207,276.6l-11,38c-2.6,8.7-3.3,12.9-8,22.5h5.6c0.7-9.6,2.8-13.8,5.4-22.7l10.9-37.8H207z"/>
</g>
<g>
	<g transform="translate(93.558011, 188.234509)">
		<g>
			<path d="M41.9,59.1h-7.6l-1.6,3.6h-1.5l6.2-13.6h1.4l6.2,13.6h-1.5L41.9,59.1z M41.4,58l-3.3-7.3L34.9,58H41.4z"/>
		</g>
	</g>
</g>
<g>
	<g transform="translate(115.675785, 188.234509)">
		<g>
			<path d="M40.8,49.1h5.5c1.4,0,2.7,0.3,3.8,0.9c1.1,0.6,1.9,1.4,2.6,2.4c0.6,1,0.9,2.2,0.9,3.5c0,1.3-0.3,2.5-0.9,3.5
				c-0.6,1-1.5,1.8-2.6,2.4c-1.1,0.6-2.4,0.9-3.8,0.9h-5.5V49.1z M46.2,61.5c1.2,0,2.2-0.2,3.1-0.7c0.9-0.5,1.6-1.1,2.1-2
				c0.5-0.8,0.8-1.8,0.8-2.9c0-1.1-0.2-2-0.8-2.9c-0.5-0.8-1.2-1.5-2.1-2c-0.9-0.5-1.9-0.7-3.1-0.7h-4v11.1H46.2z"/>
		</g>
	</g>
</g>
<g>
	<g transform="translate(139.382773, 188.234509)">
		<g>
			<path d="M48.7,49.1h5.5c1.4,0,2.7,0.3,3.8,0.9c1.1,0.6,1.9,1.4,2.6,2.4c0.6,1,0.9,2.2,0.9,3.5c0,1.3-0.3,2.5-0.9,3.5
				c-0.6,1-1.5,1.8-2.6,2.4c-1.1,0.6-2.4,0.9-3.8,0.9h-5.5V49.1z M54.1,61.5c1.2,0,2.2-0.2,3.1-0.7c0.9-0.5,1.6-1.1,2.1-2
				c0.5-0.8,0.8-1.8,0.8-2.9c0-1.1-0.2-2-0.8-2.9c-0.5-0.8-1.2-1.5-2.1-2c-0.9-0.5-1.9-0.7-3.1-0.7h-4v11.1H54.1z"/>
		</g>
	</g>
</g>
<g>
	<g transform="translate(163.089757, 188.234509)">
		<g>
			<path d="M65.9,62.7l-3.1-4.4c-0.3,0-0.7,0.1-1.1,0.1H58v4.3h-1.4V49.1h5.1c1.7,0,3.1,0.4,4.1,1.2c1,0.8,1.5,2,1.5,3.4
				c0,1.1-0.3,2-0.8,2.7c-0.5,0.7-1.3,1.3-2.3,1.6l3.3,4.7H65.9z M61.6,57.2c1.3,0,2.4-0.3,3.1-0.9c0.7-0.6,1.1-1.4,1.1-2.5
				c0-1.1-0.4-1.9-1.1-2.5c-0.7-0.6-1.7-0.9-3.1-0.9H58v6.8H61.6z"/>
		</g>
	</g>
</g>
<g>
	<g transform="translate(185.295007, 188.234509)">
		<g>
			<path d="M73.6,61.5v1.2H64V49.1h9.3v1.2h-7.9v4.8h7v1.2h-7v5H73.6z"/>
		</g>
	</g>
</g>
<g>
	<g transform="translate(206.712942, 188.234509)">
		<g>
			<path d="M74.9,62.9c-1,0-2-0.2-2.9-0.5c-0.9-0.3-1.6-0.8-2.1-1.3l0.6-1.1c0.5,0.5,1.1,0.9,2,1.2c0.8,0.3,1.7,0.5,2.5,0.5
				c1.2,0,2.1-0.2,2.8-0.7c0.6-0.5,0.9-1,0.9-1.8c0-0.5-0.2-1-0.5-1.3c-0.3-0.3-0.7-0.6-1.2-0.8c-0.5-0.2-1.1-0.4-2-0.6
				c-1-0.2-1.8-0.5-2.5-0.7c-0.6-0.2-1.1-0.6-1.6-1.1c-0.4-0.5-0.6-1.2-0.6-2c0-0.7,0.2-1.3,0.5-1.9c0.4-0.6,0.9-1,1.7-1.4
				c0.8-0.3,1.7-0.5,2.8-0.5c0.8,0,1.5,0.1,2.3,0.3c0.8,0.2,1.4,0.5,1.9,0.9l-0.5,1.1c-0.6-0.4-1.2-0.7-1.8-0.8
				c-0.7-0.2-1.3-0.3-1.9-0.3c-1.2,0-2.1,0.2-2.7,0.7c-0.6,0.5-0.9,1.1-0.9,1.8c0,0.5,0.2,1,0.5,1.3c0.3,0.3,0.8,0.6,1.2,0.8
				c0.5,0.2,1.2,0.4,2,0.6c1,0.2,1.8,0.5,2.4,0.8c0.6,0.2,1.1,0.6,1.6,1.1c0.4,0.5,0.6,1.1,0.6,2c0,0.7-0.2,1.3-0.6,1.9
				c-0.4,0.6-0.9,1-1.7,1.3C76.9,62.7,76,62.9,74.9,62.9z"/>
		</g>
	</g>
</g>
<g>
	<g transform="translate(227.343564, 188.234509)">
		<g>
			<path d="M81.7,62.9c-1,0-2-0.2-2.9-0.5c-0.9-0.3-1.6-0.8-2.1-1.3l0.6-1.1c0.5,0.5,1.1,0.9,2,1.2c0.8,0.3,1.7,0.5,2.5,0.5
				c1.2,0,2.1-0.2,2.8-0.7c0.6-0.5,0.9-1,0.9-1.8c0-0.5-0.2-1-0.5-1.3c-0.3-0.3-0.7-0.6-1.2-0.8c-0.5-0.2-1.1-0.4-2-0.6
				c-1-0.2-1.8-0.5-2.5-0.7c-0.6-0.2-1.1-0.6-1.6-1.1c-0.4-0.5-0.6-1.2-0.6-2c0-0.7,0.2-1.3,0.5-1.9c0.4-0.6,0.9-1,1.7-1.4
				C80,49.2,80.9,49,82,49c0.8,0,1.5,0.1,2.3,0.3c0.8,0.2,1.4,0.5,1.9,0.9l-0.5,1.1c-0.6-0.4-1.2-0.7-1.8-0.8
				c-0.7-0.2-1.3-0.3-1.9-0.3c-1.2,0-2.1,0.2-2.7,0.7c-0.6,0.5-0.9,1.1-0.9,1.8c0,0.5,0.2,1,0.5,1.3c0.3,0.3,0.8,0.6,1.2,0.8
				c0.5,0.2,1.2,0.4,2,0.6c1,0.2,1.8,0.5,2.4,0.8c0.6,0.2,1.1,0.6,1.6,1.1c0.4,0.5,0.6,1.1,0.6,2c0,0.7-0.2,1.3-0.6,1.9
				c-0.4,0.6-0.9,1-1.7,1.3C83.8,62.7,82.9,62.9,81.7,62.9z"/>
		</g>
	</g>
</g>
<g>
	<g transform="translate(247.974185, 188.234509)">
		<g>
			<path d="M94.5,61.5v1.2h-9.6V49.1h9.3v1.2h-7.9v4.8h7v1.2h-7v5H94.5z"/>
		</g>
	</g>
</g>
<g>
	<g transform="translate(269.39212, 188.234509)">
		<g>
			<path d="M92,49.1h5.5c1.4,0,2.7,0.3,3.8,0.9c1.1,0.6,1.9,1.4,2.6,2.4c0.6,1,0.9,2.2,0.9,3.5c0,1.3-0.3,2.5-0.9,3.5
				c-0.6,1-1.5,1.8-2.6,2.4c-1.1,0.6-2.4,0.9-3.8,0.9H92V49.1z M97.5,61.5c1.2,0,2.2-0.2,3.1-0.7c0.9-0.5,1.6-1.1,2.1-2
				c0.5-0.8,0.8-1.8,0.8-2.9c0-1.1-0.2-2-0.8-2.9c-0.5-0.8-1.2-1.5-2.1-2c-0.9-0.5-1.9-0.7-3.1-0.7h-4v11.1H97.5z"/>
		</g>
	</g>
</g>
</svg>
